<?xml version="1.0" encoding="UTF-8"?>
<!DOCTYPE svg PUBLIC "-//W3C//DTD SVG 1.1//EN" "http://www.w3.org/Graphics/SVG/1.1/DTD/svg11.dtd">
<!-- Creator: CorelDRAW X8 -->
<svg xmlns="http://www.w3.org/2000/svg" xml:space="preserve" width="40mm" height="40mm" version="1.1" style="shape-rendering:geometricPrecision; text-rendering:geometricPrecision; image-rendering:optimizeQuality; fill-rule:evenodd; clip-rule:evenodd"
viewBox="0 0 4000 4000"
 xmlns:xlink="http://www.w3.org/1999/xlink">
 <defs>
  <style type="text/css">
   <![CDATA[
    .str0 {stroke:#2B2A29;stroke-width:175}
    .fil1 {fill:none}
    .fil0 {fill:black}
   ]]>
  </style>
 </defs>
 <g id="Слой_x0020_1">
  <metadata id="CorelCorpID_0Corel-Layer"/>
  <g id="_2028879866016">
   <path class="fil0" d="M2573 3499c-21,0 -43,-2 -64,-7 -1,0 -1,0 -2,0 -31,-5 -768,-137 -1323,-692 -447,-447 -598,-1021 -642,-1250 -8,-27 -13,-56 -14,-85 -1,-3 -1,-6 -1,-9 0,-90 34,-175 98,-238l188 -189c11,-11 26,-17 42,-17 15,0 30,6 41,17l610 610c23,23 23,60 0,83l-188 189c-5,5 -10,9 -15,13 -88,79 -105,216 -39,319 63,99 134,189 211,266 92,92 201,175 324,247 100,59 230,40 314,-46l2 -2 189 -188c23,-23 60,-23 83,0l610 609c23,23 23,61 0,84l-189 188c-63,63 -147,98 -235,98zm-49 -123c2,0 3,0 5,0 71,15 145,-7 196,-58l147 -147 -527 -527 -148 149c-122,124 -311,151 -458,65 -131,-78 -248,-167 -347,-266 -84,-83 -160,-180 -228,-286 -96,-152 -70,-353 61,-470 4,-2 7,-5 10,-9l147 -146 -527 -527 -147 147c-42,41 -64,97 -63,156 0,1 0,1 0,2 1,20 4,40 10,59 1,2 1,4 2,7 41,216 184,766 610,1192 512,512 1207,649 1257,659zm904 -1211c-32,0 -59,-26 -59,-59 0,-802 -652,-1455 -1455,-1455 -32,0 -59,-26 -59,-59 0,-32 27,-58 59,-58 867,0 1573,705 1573,1572 0,33 -26,59 -59,59zm-365 0c-32,0 -59,-26 -59,-59 0,-606 -493,-1099 -1099,-1099 -33,0 -59,-27 -59,-59 0,-33 26,-59 59,-59 671,0 1217,546 1217,1217 0,33 -26,59 -59,59zm-364 0c-32,0 -59,-26 -59,-59 0,-405 -330,-735 -735,-735 -33,0 -59,-26 -59,-59 0,-32 26,-59 59,-59 470,0 853,383 853,853 0,33 -27,59 -59,59z"/>
   <g>
   </g>
   <g>
   </g>
   <g>
   </g>
   <g>
   </g>
   <g>
   </g>
   <g>
   </g>
   <g>
   </g>
   <g>
   </g>
   <g>
   </g>
   <g>
   </g>
   <g>
   </g>
   <g>
   </g>
   <g>
   </g>
   <g>
   </g>
   <g>
   </g>
  </g>
  <ellipse class="fil1 str0" cx="2007" cy="2016" rx="1875" ry="1859"/>
 </g>
</svg>
