<svg width="121" height="149" viewBox="0 0 121 149" fill="none" xmlns="http://www.w3.org/2000/svg">
<path d="M58.7699 2.2665C58.9142 2.19173 59.0858 2.19173 59.2301 2.2665L59.9178 0.939639L59.2301 2.2665L108.326 27.7119C108.491 27.7978 108.595 27.969 108.595 28.1558V78.6875C108.595 78.8742 108.491 79.0454 108.326 79.1314L59.2301 104.577C59.0858 104.652 58.9142 104.652 58.7699 104.577L9.67443 79.1314L8.9842 80.4631L9.67442 79.1314C9.5086 79.0454 9.4045 78.8742 9.4045 78.6875V28.1558C9.4045 27.969 9.5086 27.7978 9.67443 27.7119L58.7699 2.2665L58.0822 0.93964L58.7699 2.2665Z" stroke="#4F89FD" stroke-width="3"/>
<path d="M10.6412 128.443H16.8012C17.8279 128.443 18.6639 128.641 19.3092 129.037C19.9692 129.433 20.4385 129.932 20.7172 130.533C20.9959 131.12 21.1352 131.729 21.1352 132.359C21.1352 133.019 20.9959 133.591 20.7172 134.075C20.4385 134.559 20.1012 134.933 19.7052 135.197C19.3092 135.461 18.9352 135.63 18.5832 135.703V135.835C18.9645 135.865 19.4045 136.004 19.9032 136.253C20.4165 136.488 20.8639 136.877 21.2452 137.419C21.6412 137.947 21.8392 138.622 21.8392 139.443C21.8392 140.177 21.6705 140.881 21.3332 141.555C21.0105 142.215 20.4972 142.765 19.7932 143.205C19.0892 143.631 18.2092 143.843 17.1532 143.843H10.6412V128.443ZM16.2512 135.197C17.0872 135.197 17.8059 134.985 18.4072 134.559C19.0085 134.119 19.3092 133.445 19.3092 132.535C19.3092 131.67 19.0159 131.039 18.4292 130.643C17.8572 130.247 17.1312 130.049 16.2512 130.049H12.4892V135.197H16.2512ZM16.6692 142.237C17.6225 142.237 18.4145 142.017 19.0452 141.577C19.6759 141.137 19.9912 140.419 19.9912 139.421C19.9912 138.439 19.6759 137.742 19.0452 137.331C18.4145 136.906 17.6225 136.693 16.6692 136.693H12.4892V142.237H16.6692ZM29.2757 143.997C28.1024 143.997 27.1051 143.719 26.2837 143.161C25.4771 142.589 24.8684 141.849 24.4577 140.939C24.0471 140.015 23.8417 139.025 23.8417 137.969C23.8417 136.913 24.0471 135.931 24.4577 135.021C24.8684 134.097 25.4771 133.357 26.2837 132.799C27.1051 132.227 28.1024 131.941 29.2757 131.941C30.4491 131.941 31.4391 132.227 32.2457 132.799C33.0671 133.357 33.6757 134.097 34.0717 135.021C34.4824 135.945 34.6877 136.928 34.6877 137.969C34.6877 139.011 34.4824 139.993 34.0717 140.917C33.6611 141.841 33.0451 142.589 32.2237 143.161C31.4171 143.719 30.4344 143.997 29.2757 143.997ZM29.2757 142.369C29.9944 142.369 30.6177 142.171 31.1457 141.775C31.6884 141.379 32.0991 140.851 32.3777 140.191C32.6564 139.517 32.7957 138.769 32.7957 137.947C32.7957 136.686 32.4804 135.637 31.8497 134.801C31.2191 133.965 30.3611 133.547 29.2757 133.547C28.5424 133.547 27.9044 133.745 27.3617 134.141C26.8337 134.537 26.4304 135.073 26.1517 135.747C25.8731 136.407 25.7337 137.141 25.7337 137.947C25.7337 139.209 26.0491 140.265 26.6797 141.115C27.3104 141.951 28.1757 142.369 29.2757 142.369ZM42.3597 143.997C41.1864 143.997 40.189 143.719 39.3677 143.161C38.561 142.589 37.9524 141.849 37.5417 140.939C37.131 140.015 36.9257 139.025 36.9257 137.969C36.9257 136.913 37.131 135.931 37.5417 135.021C37.9524 134.097 38.561 133.357 39.3677 132.799C40.189 132.227 41.1864 131.941 42.3597 131.941C43.533 131.941 44.523 132.227 45.3297 132.799C46.151 133.357 46.7597 134.097 47.1557 135.021C47.5664 135.945 47.7717 136.928 47.7717 137.969C47.7717 139.011 47.5664 139.993 47.1557 140.917C46.745 141.841 46.129 142.589 45.3077 143.161C44.501 143.719 43.5184 143.997 42.3597 143.997ZM42.3597 142.369C43.0784 142.369 43.7017 142.171 44.2297 141.775C44.7724 141.379 45.183 140.851 45.4617 140.191C45.7404 139.517 45.8797 138.769 45.8797 137.947C45.8797 136.686 45.5644 135.637 44.9337 134.801C44.303 133.965 43.445 133.547 42.3597 133.547C41.6264 133.547 40.9884 133.745 40.4457 134.141C39.9177 134.537 39.5144 135.073 39.2357 135.747C38.957 136.407 38.8177 137.141 38.8177 137.947C38.8177 139.209 39.133 140.265 39.7637 141.115C40.3944 141.951 41.2597 142.369 42.3597 142.369ZM53.6397 133.767V140.499C53.6397 141.042 53.6617 141.445 53.7057 141.709C53.7644 141.959 53.9037 142.157 54.1237 142.303C54.3584 142.45 54.7324 142.523 55.2457 142.523C55.5977 142.523 55.979 142.472 56.3897 142.369V143.733C56.287 143.777 56.0597 143.821 55.7077 143.865C55.3704 143.909 55.0184 143.931 54.6517 143.931C53.801 143.931 53.163 143.814 52.7377 143.579C52.327 143.33 52.0557 143 51.9237 142.589C51.8064 142.164 51.7477 141.607 51.7477 140.917V133.767H49.5917V132.249H51.7477V128.443H53.6397V132.249H56.3897V133.767H53.6397ZM63.1344 143.997C62.1957 143.997 61.3817 143.814 60.6924 143.447C60.0031 143.066 59.4751 142.582 59.1084 141.995C58.7564 141.409 58.5804 140.793 58.5804 140.147V140.037H60.4724V140.125C60.4724 140.492 60.5751 140.859 60.7804 141.225C60.9857 141.577 61.2937 141.871 61.7044 142.105C62.1151 142.325 62.6137 142.435 63.2004 142.435C63.9044 142.435 64.4837 142.267 64.9384 141.929C65.4077 141.577 65.6424 141.101 65.6424 140.499C65.6424 140.001 65.4591 139.605 65.0924 139.311C64.7404 139.018 64.2931 138.827 63.7504 138.739L62.2324 138.519C61.2791 138.373 60.4797 138.05 59.8344 137.551C59.1891 137.038 58.8664 136.297 58.8664 135.329C58.8664 134.259 59.2477 133.43 60.0104 132.843C60.7877 132.242 61.7777 131.941 62.9804 131.941C63.8751 131.941 64.6377 132.11 65.2684 132.447C65.9137 132.77 66.4051 133.203 66.7424 133.745C67.0797 134.273 67.2484 134.853 67.2484 135.483V135.571H65.3564V135.527C65.3564 135.234 65.2757 134.926 65.1144 134.603C64.9677 134.281 64.7111 134.002 64.3444 133.767C63.9777 133.533 63.5084 133.415 62.9364 133.415C62.2324 133.415 61.6677 133.591 61.2424 133.943C60.8171 134.281 60.6044 134.728 60.6044 135.285C60.6044 135.74 60.7731 136.114 61.1104 136.407C61.4477 136.701 61.8731 136.891 62.3864 136.979L64.0364 137.243C65.0044 137.405 65.8184 137.742 66.4784 138.255C67.1384 138.754 67.4684 139.495 67.4684 140.477C67.4684 141.181 67.2777 141.797 66.8964 142.325C66.5297 142.853 66.0164 143.264 65.3564 143.557C64.6964 143.851 63.9557 143.997 63.1344 143.997ZM73.1905 133.767V140.499C73.1905 141.042 73.2125 141.445 73.2565 141.709C73.3151 141.959 73.4545 142.157 73.6745 142.303C73.9091 142.45 74.2831 142.523 74.7965 142.523C75.1485 142.523 75.5298 142.472 75.9405 142.369V143.733C75.8378 143.777 75.6105 143.821 75.2585 143.865C74.9211 143.909 74.5691 143.931 74.2025 143.931C73.3518 143.931 72.7138 143.814 72.2885 143.579C71.8778 143.33 71.6065 143 71.4745 142.589C71.3571 142.164 71.2985 141.607 71.2985 140.917V133.767H69.1425V132.249H71.2985V128.443H73.1905V132.249H75.9405V133.767H73.1905ZM78.6372 132.249H80.5292V134.097H80.6612C80.8519 133.584 81.1892 133.151 81.6732 132.799C82.1719 132.433 82.7952 132.249 83.5432 132.249C83.7779 132.249 83.9612 132.264 84.0932 132.293C84.2399 132.308 84.4012 132.345 84.5772 132.403L84.5112 134.251C84.2765 134.178 84.0712 134.127 83.8952 134.097C83.7339 134.068 83.5212 134.053 83.2572 134.053C81.4385 134.053 80.5292 135.131 80.5292 137.287V143.843H78.6372V132.249ZM90.5767 143.997C89.55 143.997 88.67 143.733 87.9367 143.205C87.218 142.677 86.668 141.959 86.2867 141.049C85.9053 140.14 85.7147 139.113 85.7147 137.969C85.7147 136.825 85.9053 135.799 86.2867 134.889C86.6827 133.965 87.2473 133.247 87.9807 132.733C88.7287 132.205 89.616 131.941 90.6427 131.941C91.6693 131.941 92.498 132.183 93.1287 132.667C93.7593 133.151 94.236 133.731 94.5587 134.405H94.7127V132.249H96.6267V143.843H94.7127V141.467H94.5587C94.2067 142.157 93.708 142.751 93.0627 143.249C92.4173 143.748 91.5887 143.997 90.5767 143.997ZM91.1707 142.369C92.3 142.369 93.1653 141.951 93.7667 141.115C94.368 140.265 94.6687 139.216 94.6687 137.969C94.6687 136.723 94.368 135.681 93.7667 134.845C93.1653 133.995 92.3 133.569 91.1707 133.569C90.012 133.569 89.132 133.987 88.5307 134.823C87.944 135.659 87.6507 136.701 87.6507 137.947C87.6507 139.209 87.944 140.265 88.5307 141.115C89.132 141.951 90.012 142.369 91.1707 142.369ZM106.001 143.997C104.989 143.997 104.161 143.748 103.515 143.249C102.87 142.751 102.371 142.157 102.019 141.467H101.865V148.309H99.9512V132.249H101.865V134.405H102.019C102.342 133.731 102.819 133.151 103.449 132.667C104.08 132.183 104.909 131.941 105.935 131.941C106.977 131.941 107.864 132.205 108.597 132.733C109.345 133.247 109.91 133.965 110.291 134.889C110.673 135.799 110.863 136.825 110.863 137.969C110.863 139.113 110.673 140.14 110.291 141.049C109.91 141.959 109.353 142.677 108.619 143.205C107.886 143.733 107.013 143.997 106.001 143.997ZM105.407 142.369C106.551 142.369 107.417 141.951 108.003 141.115C108.605 140.279 108.905 139.231 108.905 137.969C108.905 136.723 108.612 135.681 108.025 134.845C107.439 134.009 106.566 133.591 105.407 133.591C104.263 133.591 103.391 134.009 102.789 134.845C102.203 135.681 101.909 136.723 101.909 137.969C101.909 139.216 102.21 140.265 102.811 141.115C103.413 141.951 104.278 142.369 105.407 142.369Z" fill="black"/>
<g clip-path="url(#clip0_303_30)">
<path d="M28 76.3659C28 80.6391 31.4638 84.1024 35.7365 84.1024H80.2633C84.5366 84.1024 88 80.6386 88 76.3659V31.8391C88 27.5658 84.5362 24.1024 80.2635 24.1024H35.7367C31.4634 24.1024 28 27.5662 28 31.8389V76.3657V76.3659Z" fill="#563D7C"/>
<path d="M52.8808 50.6426V42.1458H60.3599C61.0724 42.1458 61.7591 42.2051 62.4205 42.3239C63.082 42.4425 63.6672 42.6544 64.176 42.9598C64.6846 43.2652 65.0917 43.6891 65.3971 44.2317C65.7023 44.7745 65.8551 45.4699 65.8551 46.3177C65.8551 47.8441 65.3971 48.9466 64.4812 49.6249C63.5655 50.3034 62.3952 50.6426 60.9705 50.6426H52.8808ZM44.8926 35.9384V72.2665H62.497C64.1252 72.2665 65.7109 72.063 67.2543 71.6559C68.7977 71.2488 70.1713 70.6214 71.3756 69.7734C72.5795 68.9255 73.5379 67.8314 74.2502 66.4917C74.9627 65.1518 75.3187 63.566 75.3187 61.7344C75.3187 59.4616 74.7674 57.5198 73.6652 55.9087C72.5627 54.2974 70.892 53.1696 68.6533 52.5251C70.2815 51.7451 71.5113 50.7443 72.3424 49.5232C73.1732 48.3021 73.5888 46.7759 73.5888 44.944C73.5888 43.248 73.3089 41.8235 72.7492 40.6702C72.1895 39.517 71.4009 38.5927 70.3832 37.8973C69.3658 37.2019 68.1447 36.7015 66.7199 36.3963C65.2954 36.0909 63.7181 35.9384 61.9881 35.9384H44.8926ZM52.8808 66.0591V56.0866H61.581C63.3109 56.0866 64.7017 56.4851 65.7534 57.2824C66.8048 58.0795 67.3307 59.4108 67.3307 61.2764C67.3307 62.2263 67.1695 63.0063 66.8472 63.6169C66.5249 64.2274 66.0925 64.7109 65.5497 65.0669C65.0071 65.4232 64.3795 65.6775 63.6672 65.8303C62.9547 65.9827 62.2087 66.0591 61.4284 66.0591H52.8808Z" fill="white"/>
</g>
<defs>
<clipPath id="clip0_303_30">
<rect width="60" height="60" fill="white" transform="translate(28 24.1024)"/>
</clipPath>
</defs>
</svg>
