<svg width="35" height="35" viewBox="0 0 35 35" fill="none" xmlns="http://www.w3.org/2000/svg">
<path d="M33.5944 1.42162C31.5941 -0.578709 27.922 -0.457702 23.2352 1.71562C21.4482 1.07001 19.5285 0.706809 17.5166 0.706809C8.2642 0.712606 0.735498 8.2471 0.735498 17.4994C0.735498 19.5056 1.0929 21.4368 1.74431 23.218C-0.434721 27.9105 -0.613423 31.6518 1.44451 33.583C4.18855 36.154 8.85791 34.7129 11.7806 33.2775C13.5735 33.9347 15.5104 34.2921 17.5223 34.2921C26.7747 34.2921 34.3092 26.7634 34.3092 17.5051C34.3092 15.499 33.9575 13.5794 33.3118 11.7923C35.5256 6.94429 35.5026 3.32975 33.5944 1.42162ZM32.2224 2.79943C33.3753 3.95235 33.3523 6.32168 32.2109 9.38852C30.6833 6.63298 28.4005 4.35015 25.6449 2.82253C28.6829 1.68682 31.081 1.65802 32.2224 2.79943ZM28.239 16.5137H26.7516C26.6882 14.5134 26.4461 12.6226 26.0483 10.8815H30.8042C30.9426 11.1525 31.0636 11.4234 31.1847 11.7059C30.4008 13.274 29.4035 14.8938 28.239 16.5137ZM32.0091 14.3001C32.1647 15.0149 32.2685 15.7528 32.3262 16.5137H30.6429C31.1444 15.7758 31.5883 15.0379 32.0091 14.3001ZM26.7689 18.4564C26.7632 18.4622 26.7632 18.4679 26.7574 18.4679C26.7574 18.4621 26.7574 18.4564 26.7574 18.4564H26.7689ZM25.518 8.95041C24.8378 6.82899 23.9039 5.01307 22.7971 3.63534C25.5757 4.69606 27.9508 6.56379 29.6398 8.95041H25.518ZM18.4908 24.0885V18.4564H24.809C24.7802 19.3153 24.7052 20.157 24.6015 20.9756C24.0366 21.5982 23.4486 22.215 22.8433 22.8203C22.411 23.2526 21.9728 23.6735 21.5405 24.0828H18.4909V24.0885H18.4908ZM19.3555 26.0312C19.073 26.2734 18.7848 26.504 18.5023 26.7346V26.0312H19.3555ZM24.0307 10.8931C24.463 12.6168 24.7398 14.5192 24.8089 16.5253H18.4907V10.8931H24.0307ZM18.4908 8.95041V2.79943C20.5028 3.37014 22.2898 5.68757 23.4427 8.93882H18.4908V8.95041ZM18.4908 29.1846C19.7591 28.2334 21.0273 27.1785 22.2956 26.0312H23.4543C22.2956 29.3056 20.5143 31.6288 18.4908 32.2052V29.1846ZM22.7856 31.3751C23.9097 29.9916 24.8436 28.1642 25.5296 26.0255H29.663C27.9681 28.4352 25.5756 30.3144 22.7856 31.3751ZM30.8216 24.0885H26.0599C26.2271 23.3737 26.3539 22.6185 26.4692 21.8518C27.4954 20.7162 28.4235 19.5863 29.2709 18.4621H32.3377C32.2051 20.4683 31.6747 22.3707 30.8216 24.0885ZM13.7004 30.0666C12.8761 29.0117 12.1554 27.6339 11.5904 26.0312H16.5539V28.2046C15.5796 28.9021 14.6285 29.5247 13.7004 30.0666ZM16.5481 30.5796V32.2052C16.0581 32.0668 15.5854 31.819 15.1242 31.4904C15.5969 31.1964 16.0754 30.8967 16.5481 30.5796ZM11.9882 31.0177C11.896 31.0638 11.8095 31.1099 11.7288 31.1503C9.16931 30.0608 6.97868 28.2737 5.39345 26.0312H9.5268C10.1492 27.9913 10.9851 29.6803 11.9882 31.0177ZM11.0024 24.0885C10.5701 22.3649 10.2991 20.4625 10.2299 18.4564H16.5481V24.0885H11.0024ZM10.2357 16.5137C10.3049 14.5134 10.5816 12.6053 11.0139 10.8815H16.5538V16.5137H10.2357ZM9.52671 8.95041H5.40487C7.09389 6.56379 9.46902 4.69026 12.2476 3.63534C11.1408 5.01307 10.2069 6.82319 9.52671 8.95041ZM8.99631 10.8931C8.59851 12.6284 8.3507 14.5249 8.293 16.5253H2.71853C2.85113 14.5134 3.38724 12.6111 4.24044 10.8931H8.99631ZM8.293 18.4564C8.35641 20.4568 8.59851 22.3476 8.99051 24.0886H4.22894C3.37573 22.3707 2.84542 20.4684 2.71862 18.4564H8.293ZM16.5481 8.95041H11.5962C12.7608 5.69337 14.5363 3.37594 16.5481 2.80523V8.95041ZM2.82233 32.2053C1.68091 31.0639 1.70401 28.6658 2.83383 25.622C4.35575 28.3718 6.63278 30.6431 9.37102 32.1765C6.31577 33.3063 3.94064 33.3294 2.82233 32.2053Z" fill="#194F82"/>
</svg>
