<svg width="44" height="37" viewBox="0 0 44 37" fill="none" xmlns="http://www.w3.org/2000/svg">
<path d="M25.7877 19.0499L24.0619 17.4811C24.2502 17.1289 24.4151 16.7672 24.556 16.397H26.9964C27.7984 16.397 28.4487 15.8059 28.4487 15.0767V11.2064C28.4487 10.4774 27.7985 9.88612 26.9964 9.88612H24.5559C24.415 9.51602 24.2501 9.15427 24.0619 8.80208L25.7877 7.23319C26.3548 6.71764 26.3548 5.88168 25.7877 5.36612L22.7773 2.62942C22.2101 2.114 21.2908 2.114 20.7236 2.62942L18.9978 4.19831C18.6104 4.02727 18.2126 3.87723 17.8053 3.74929V1.53057C17.8053 0.801542 17.1551 0.210297 16.353 0.210297H12.0957C11.2938 0.210297 10.6434 0.801408 10.6434 1.53057V3.74929C10.2363 3.87737 9.83837 4.02713 9.45096 4.19831L7.72533 2.62942C7.45304 2.38188 7.08356 2.24275 6.69837 2.24275C6.31319 2.24275 5.94385 2.38188 5.67141 2.62942L2.66089 5.36612C2.38859 5.61366 2.23556 5.94955 2.23556 6.29972C2.23556 6.64989 2.38859 6.98565 2.66089 7.23333L4.38667 8.80222C4.19852 9.15427 4.03348 9.51602 3.89274 9.88626H1.4523C0.650222 9.88626 0 10.4774 0 11.2064V15.0768C0 15.8059 0.650222 16.3971 1.4523 16.3971H3.89274C4.03378 16.7672 4.19852 17.1289 4.38682 17.4813L2.66104 19.05C2.09393 19.5656 2.09393 20.4015 2.66104 20.9171L5.67141 23.6538C6.23867 24.1691 7.15793 24.1694 7.72519 23.6538L9.45096 22.0849C9.83822 22.2561 10.2363 22.4061 10.6434 22.5341V24.7528C10.6434 25.4818 11.2936 26.0731 12.0957 26.0731H16.3532C17.1551 26.0731 17.8055 25.4819 17.8055 24.7528V22.5341C18.2124 22.406 18.6105 22.2561 18.9979 22.0849L20.7237 23.6538C21.291 24.1692 22.2102 24.1692 22.7775 23.6538L25.7879 20.9171C26.355 20.4014 26.355 19.5654 25.7877 19.0499ZM22.0486 14.7815C21.8486 15.5733 21.5067 16.3236 21.0323 17.0115C20.6727 17.5329 20.7573 18.2111 21.236 18.6461L22.7071 19.9835L21.7505 20.8533L20.2793 19.5157C19.8004 19.0806 19.0547 19.0041 18.4812 19.3306C17.7241 19.7619 16.899 20.0728 16.0284 20.2543C15.3686 20.392 14.901 20.9258 14.901 21.5412V23.4325H13.5481V21.5412C13.5481 20.9258 13.0806 20.3921 12.4207 20.2543C11.5502 20.0728 10.725 19.7619 9.968 19.3306C9.39496 19.0042 8.64874 19.0805 8.16993 19.5157L6.69867 20.8533L5.74207 19.9835L7.21319 18.6461C7.69185 18.211 7.7763 17.5329 7.41689 17.0115C6.94252 16.3236 6.60059 15.5733 6.40059 14.7815C6.24919 14.1817 5.66207 13.7567 4.98519 13.7567H2.90444V12.5268H4.98474C5.66148 12.5268 6.24859 12.1017 6.40015 11.5021C6.6003 10.7102 6.94207 9.96006 7.41644 9.27225C7.77615 8.7509 7.69156 8.07265 7.21289 7.6375L5.74163 6.29999L6.69837 5.43036L8.16948 6.76787C8.64815 7.20316 9.39437 7.27952 9.9677 6.95292C10.7244 6.52168 11.5496 6.21097 12.4203 6.02929C13.0801 5.89164 13.5477 5.35777 13.5477 4.74242V2.85084H14.9006V4.74215C14.9006 5.3575 15.3681 5.89124 16.028 6.02902C16.8988 6.2107 17.7239 6.52141 18.4806 6.95265C19.0541 7.27952 19.8003 7.20302 20.2788 6.7676L21.7501 5.43009L22.7067 6.29972L21.2354 7.63723C20.7567 8.07252 20.6723 8.75063 21.0319 9.27198C21.5062 9.95979 21.848 10.7101 22.0481 11.5019C22.1996 12.1015 22.7868 12.5265 23.4636 12.5265H25.5439V13.7564H23.4636C22.787 13.7566 22.2 14.1816 22.0486 14.7815Z" fill="#E84949"/>
<path d="M14.2243 8.06836C11.1471 8.06836 8.64371 10.3442 8.64371 13.1416C8.64371 15.9391 11.1471 18.2149 14.2243 18.2149C17.3015 18.2149 19.8049 15.9391 19.8049 13.1416C19.8049 10.3442 17.3016 8.06836 14.2243 8.06836ZM14.2243 15.5745C12.7486 15.5745 11.5482 14.4832 11.5482 13.1416C11.5482 11.8001 12.7487 10.7088 14.2243 10.7088C15.6999 10.7088 16.9004 11.8001 16.9004 13.1416C16.9004 14.4832 15.7 15.5745 14.2243 15.5745Z" fill="#E84949"/>
<path d="M43.0487 28.276C43.6797 28.1702 44.0969 27.6195 43.9804 27.0458L43.4324 24.3451C43.3766 24.0696 43.2025 23.8256 42.9489 23.6669C42.6951 23.5081 42.3821 23.4473 42.0792 23.4981L40.4674 23.7683C40.3425 23.5733 40.2072 23.3838 40.0625 23.2003L40.9918 21.9733C41.1665 21.7424 41.2333 21.4581 41.1775 21.1827C41.1216 20.9071 40.9475 20.6632 40.6938 20.5044L38.2055 18.947C37.6775 18.6164 36.9538 18.7373 36.5899 19.2178L35.6604 20.445C35.4203 20.3874 35.1775 20.3404 34.9324 20.3039L34.6351 18.8387C34.5187 18.2651 33.9121 17.8854 33.2819 17.9917L30.3111 18.4899C30.008 18.5407 29.7397 18.6989 29.565 18.9295C29.3904 19.1603 29.3235 19.4446 29.3794 19.7201L29.6767 21.1854C29.4621 21.299 29.2536 21.4219 29.0518 21.5535L27.7021 20.7086C27.4481 20.5498 27.1354 20.4893 26.8324 20.5399C26.5293 20.5906 26.261 20.7489 26.0864 20.9796L24.3732 23.2417C24.1984 23.4724 24.1317 23.7567 24.1876 24.0321C24.2434 24.3077 24.4175 24.5517 24.6713 24.7105L26.021 25.5552C25.9576 25.7737 25.9059 25.9943 25.8658 26.2172L24.2539 26.4875C23.9508 26.5382 23.6825 26.6965 23.5078 26.9271C23.333 27.1579 23.2664 27.4422 23.3222 27.7176L23.8704 30.4184C23.9868 30.992 24.5924 31.3718 25.2235 31.2654L26.8354 30.9951C26.9603 31.1901 27.0955 31.3797 27.2403 31.5632L26.311 32.7901C26.1363 33.0209 26.0695 33.3051 26.1253 33.5807C26.1812 33.8562 26.3553 34.1001 26.609 34.2589L29.0973 35.8164C29.6253 36.147 30.3492 36.0259 30.7129 35.5455L31.6422 34.3184C31.8824 34.3759 32.1252 34.423 32.3704 34.4596L32.6677 35.9248C32.771 36.4336 33.2594 36.7896 33.8089 36.7896C33.8788 36.7896 33.9498 36.7839 34.0209 36.7719L36.9917 36.2737C37.2948 36.223 37.5631 36.0647 37.7378 35.8341C37.9124 35.6033 37.9792 35.319 37.9234 35.0436L37.6261 33.5782C37.8407 33.4646 38.0492 33.3417 38.2509 33.2102L39.6006 34.055C39.8545 34.2139 40.1669 34.2747 40.4702 34.2238C40.7733 34.173 41.0416 34.0147 41.2163 33.784L42.9295 31.5219C43.2933 31.0415 43.16 30.384 42.6315 30.0533L41.2818 29.2083C41.3452 28.99 41.3969 28.7692 41.437 28.5465L43.0487 28.276ZM40.1621 26.6123C39.6293 26.7016 39.2352 27.1137 39.2121 27.6056C39.1855 28.1679 39.0563 28.7182 38.8281 29.2415C38.6286 29.6992 38.8032 30.2215 39.2493 30.5007L40.357 31.1941L39.9615 31.7164L38.8539 31.0231C38.4075 30.7438 37.8086 30.7819 37.4098 31.1147C36.9533 31.4951 36.4338 31.8013 35.8655 32.0246C35.3683 32.2199 35.0855 32.7016 35.1837 33.1856L35.4277 34.3883L34.7419 34.5034L34.4979 33.3008C34.3997 32.8166 33.9465 32.4584 33.4055 32.4372C32.7865 32.4129 32.181 32.2954 31.6055 32.0881C31.4659 32.0379 31.3212 32.0138 31.1779 32.0138C30.8044 32.0138 30.4425 32.1781 30.2206 32.471L29.4579 33.478L28.8834 33.1184L29.6461 32.1116C29.9532 31.706 29.9114 31.1615 29.5453 30.7987C29.1268 30.3838 28.7901 29.9114 28.5443 29.3945C28.3293 28.9427 27.7982 28.6854 27.2671 28.775L25.9443 28.9968L25.8176 28.3734L27.1406 28.1516C27.6733 28.0623 28.0674 27.6502 28.0905 27.1583C28.1172 26.596 28.2464 26.0457 28.4745 25.5221C28.6741 25.0644 28.4992 24.5423 28.0532 24.263L26.9455 23.5698L27.341 23.0475L28.4487 23.7408C28.8951 24.0203 29.4938 23.982 29.8929 23.6492C30.3493 23.2687 30.8689 22.9626 31.4375 22.7392C31.9344 22.5438 32.2172 22.0621 32.119 21.5781L31.875 20.3755L32.5607 20.2605L32.8047 21.4631C32.903 21.9474 33.3563 22.3056 33.8973 22.3267C34.5158 22.3509 35.1212 22.4683 35.6969 22.6757C36.2007 22.8573 36.7749 22.6982 37.0819 22.2929L37.8447 21.2857L38.4192 21.6453L37.6566 22.6523C37.3495 23.058 37.3912 23.6025 37.7573 23.9653C38.1758 24.3801 38.5126 24.8523 38.7582 25.3691C38.9729 25.8209 39.5034 26.0783 40.0354 25.9889L41.3584 25.7671L41.4849 26.3905L40.1621 26.6123Z" fill="#E84949"/>
<path d="M35.9714 24.3183C35.0714 23.7551 33.9835 23.5442 32.909 23.7242C31.8343 23.9044 30.9012 24.4545 30.2814 25.2727C29.002 26.9618 29.473 29.2824 31.3311 30.4453C32.038 30.8879 32.8456 31.1 33.6452 31.1C34.9472 31.1 36.2286 30.5374 37.0212 29.491C38.3004 27.8018 37.8295 25.4813 35.9714 24.3183ZM35.1074 28.2931C34.5546 29.0228 33.4517 29.2079 32.649 28.7055C31.8462 28.203 31.6426 27.2003 32.1954 26.4706C32.1955 26.4705 32.1955 26.4705 32.1955 26.4705C32.4631 26.117 32.8663 25.8794 33.3306 25.8015C33.4388 25.7835 33.5474 25.7745 33.6551 25.7745C34.0096 25.7745 34.3555 25.8716 34.6537 26.0582C35.4566 26.5607 35.6601 27.5633 35.1074 28.2931Z" fill="#E84949"/>
</svg>
